# xmcd
#
# Track frame offsets:
#	150
#	11762
#	24801
#	36479
#	49217
#	61935
#	71378
#	83643
#	95475
#	107818
#	120958
#	133827
#	146667
#	159226
#	168376
#	180196
#	192036
#	207324
#	216992
#	230173
#
# Disc length: 3219 seconds
#
# Revision: 4
# Processed by: cddbd v1.5.2PL0 Copyright (c) Steve Scherf et al.
# Submitted via: audiograbber 1.83.01
#
DISCID=100c9114
DTITLE=Various (corrected) - The History Of Country and Western Music Vol. 9
DYEAR=2004
DGENRE=Country
TTITLE0=Roy Acuff - Fireball Mail (1942)
TTITLE1=Louise Massey - Squeeze Box Polka (1942)
TTITLE2=Hank Penny - Talkin' 'Bout You (1943)
TTITLE3=Al Dexter - Pistol Packin' Mama (1943)
TTITLE4=Tex Ritter - Jingle Jangle Jingle (1943)
TTITLE5=Gene Autry - In Old Capistrano (1943)
TTITLE6=Ted Daffan - Born to Lose (1943)
TTITLE7=Hank Penny - Tearstains on your Letter (1943)
TTITLE8=Hank Penny - When You Cry (1944)
TTITLE9=Spade Colley - Shame On You (1944)
TTITLE10=Foy Willing - Texas Blues (1944)
TTITLE11=Tex Ritter - I'm Wasting My Tears On You (1944)
TTITLE12=Hank Penny - I'm Singing the Blues (1944)
TTITLE13=Johnny Bond - Ten Years (1945)
TTITLE14=Bob Wills - Roly Poly (1945)
TTITLE15=Bill Monroe - Rocky Road Blues (1945)
TTITLE16=Arthur Smith - Guitar Boogie (1945)
TTITLE17=Johnny Bond - Red River Valley (1945)
TTITLE18=Curly Williams - Southern Belle (1945)
TTITLE19=Texas Ruby - Don't Let That Man Get You Down (1945)
EXTD=Song titles corrected.\nTrack dates provided.
EXTT0=
EXTT1=
EXTT2=
EXTT3=
EXTT4=
EXTT5=
EXTT6=
EXTT7=
EXTT8=
EXTT9=
EXTT10=
EXTT11=
EXTT12=
EXTT13=
EXTT14=
EXTT15=
EXTT16=
EXTT17=
EXTT18=
EXTT19=
PLAYORDER=
